<?xml version="1.0" standalone="no"?>
<!DOCTYPE svg PUBLIC "-//W3C//DTD SVG 1.1//EN" "http://www.w3.org/Graphics/SVG/1.1/DTD/svg11.dtd" >
<svg xmlns="http://www.w3.org/2000/svg">
<metadata></metadata>
<defs>
<font id="cruor_hillaregular" horiz-adv-x="647" >
<font-face units-per-em="2048" ascent="1638" descent="-410" />
<missing-glyph horiz-adv-x="559" />
<glyph horiz-adv-x="0" />
<glyph unicode="&#xd;" horiz-adv-x="681" />
<glyph unicode=" "  horiz-adv-x="559" />
<glyph unicode="&#x09;" horiz-adv-x="559" />
<glyph unicode="&#xa0;" horiz-adv-x="559" />
<glyph unicode="!" horiz-adv-x="327" d="M61 125v192h91q78 0 88 -11t18 -97l8 -72q-27 0 -98.5 -7t-106.5 -5zM72 1255h157q16 -692 15 -837q-78 4 -138 -6q-14 -2 -18 18q-6 25 -10 148q-6 172 -6 677z" />
<glyph unicode="&#x22;" horiz-adv-x="583" d="M61 1286q117 12 132 10q4 -4 56 -148.5t52 -154.5q-6 -10 -137 -10q-18 49 -52 151.5t-51 151.5zM287 1284q6 4 62.5 12.5t62.5 6.5q4 -10 51 -146.5t59 -175.5q-45 4 -143 4q-92 285 -92 299z" />
<glyph unicode="#" horiz-adv-x="1081" d="M61 770v182h189q14 63 14 314h185l-17 -312q178 -8 201 -2q4 18 4 303h182l-8 -303h209v-182h-211q2 -61 -6 -170h166v-182h-170q0 -227 -15 -314h-168v314h-192q0 -229 -12 -303h-70q-80 0 -89 15t-9 138v140q-115 0 -168 4q2 63 -6 178h184v180h-193zM434 596 q25 -10 193 6v168h-189q-16 -143 -4 -174z" />
<glyph unicode="$" horiz-adv-x="878" d="M61 147v160q106 2 308 -6l8 373l-307 -8l-9 610h324v121q57 2 156 -6q-2 -47 6 -125q227 0 241 -4q6 -16 -2 -158h-249v-262h280v-711h-287q2 -68 -6 -188h-159v192q-197 0 -304 12zM233 831h142v273q-80 -4 -142 12v-285zM537 297h120v383q-106 0 -114 -6 q-6 -25 -6 -377z" />
<glyph unicode="%" horiz-adv-x="1425" d="M61 1245h527q-2 -45 -5 -168t-6.5 -212t-11.5 -132q-311 -23 -463 -14q-33 2 -24 6q-9 74 -17 520zM184 203q100 123 448.5 527t452.5 515q6 0 60 -49q35 -33 41 -44t-4 -24q8 8 -210 -247.5t-440 -515.5l-223 -259q4 -20 -108 80zM223 1083q-4 -117 13 -206q57 4 180 4 q-2 55 12 202h-205zM819 117v501h545v-518q-92 0 -285.5 7.5t-259.5 9.5zM973 272l239 -8v96q0 68 -3 83.5t-19 19.5q-37 6 -117 6q-88 -2 -96 -12q-4 -4 -4 -68v-33v-84z" />
<glyph unicode="&#x26;" horiz-adv-x="1372" d="M61 831h125q-20 355 -26 435q270 -2 684 4l12 -434q49 2 135 -7q-4 -209 15 -315l190 180q2 -4 44 -49t63 -70l-177 -167q27 -23 88.5 -81.5t96.5 -86.5q-18 -20 -53 -59.5t-54 -59.5q-80 72 -186 164q-14 20 -14 -25q2 -23 6 -82l4 -53h-930q-12 610 -23 706zM233 670 q-2 -190 15 -383h592v126t-2.5 165.5t-10.5 91.5h-594zM334 1106q-2 -47 14 -275h340v93.5t-2 136.5t-10 51q-104 -12 -342 -6z" />
<glyph unicode="'" horiz-adv-x="438" d="M61 819q2 14 57.5 177t86.5 241q162 -16 172 -20q6 -2 -28 -100.5t-68.5 -196t-32.5 -97.5q-2 -6 -48 -10t-92.5 -2t-46.5 8z" />
<glyph unicode="(" horiz-adv-x="585" d="M61 -47q16 705 13 1472q178 8 432 9q14 -119 6 -158q-12 -2 -63.5 -5t-115 -5t-83.5 -4q-16 -754 -14 -1147h280q0 -27 3 -81t5 -81h-463z" />
<glyph unicode=")" horiz-adv-x="579" d="M61 1278v168h457q-8 -1190 -16 -1479q-152 -8 -430 -14v172q250 0 266 10q6 104 6 1135z" />
<glyph unicode="*" horiz-adv-x="628" d="M61 971q35 133 43 141q2 2 58.5 -13.5t58.5 -15.5q8 4 8 131h172q0 -117 9 -120l59 14q59 14 63 8q14 -29 25 -78q8 -33 9 -49t-5 -24.5t-13 -10.5t-25.5 -5t-33.5 -7l-38 -10q84 -98 92 -127q-14 -23 -66.5 -59.5t-62.5 -47.5q-80 119 -103 133q-10 0 -82 -112 q-2 -4 -26.5 9t-56 34.5t-52.5 40.5q-6 2 12.5 29.5t36 56.5t13.5 31q0 6 -28 14t-50.5 17.5t-16.5 19.5z" />
<glyph unicode="+" horiz-adv-x="901" d="M61 639q-2 53 7 147q154 -2 297 7q-2 102 14 280h137v-282h318q4 -45 4 -142q-84 2 -322 -12v-148q2 -57 1 -87.5t-4 -56.5t-9 -32t-17.5 -14t-28 -3t-40 2t-53.5 -1v342h-304z" />
<glyph unicode="," horiz-adv-x="354" d="M61.5 -104.5q-0.5 10.5 33.5 168t42 184.5q6 16 33 14q6 -2 37 -5t56.5 -8t29.5 -11q-4 -33 -76 -351q-10 2 -59 0q-96 -2 -96.5 8.5z" />
<glyph unicode="-" d="M61 408v161h525v-161h-525z" />
<glyph unicode="." horiz-adv-x="262" d="M61 162q-2 53 8 63.5t76 14.5q20 4 24.5 4h16t10.5 -2t2 -8.5t2 -12.5t-1 -21.5t2 -29.5v-76q-49 -2 -135 6z" />
<glyph unicode="/" horiz-adv-x="774" d="M63 207q82 188 287 625.5t217 463.5q4 0 75 -36.5t71 -38.5q-70 -154 -247 -537t-249 -537q-8 -23 -21.5 -20.5t-72.5 29.5q-45 20 -54.5 28.5t-5.5 22.5z" />
<glyph unicode="0" horiz-adv-x="940" d="M63 119q-4 4 6.5 572.5t14.5 572.5q76 6 393.5 19t376.5 11q12 -776 25 -1192q-766 8 -816 17zM228 405.5q-1 -75.5 1 -129.5q352 0 375 5q-141 254 -354 604q-2 2 -5 -44t-6 -118t-6.5 -157t-4.5 -160.5zM328 1104q-6 -6 53 -107q305 -524 311 -530q6 49 6 657 q-186 0 -370 -20z" />
<glyph unicode="1" horiz-adv-x="598" d="M61 1104v162h347q-2 -168 -6.5 -500t-6.5 -500h142v-162h-465v162l81 6t80 7q0 715 7 802q4 16 -7.5 19.5t-78.5 3.5h-93z" />
<glyph unicode="2" horiz-adv-x="985" d="M63 125l7 256q6 246 13 292t36 52q70 4 300 7t316 11q-18 334 -20 351q10 6 -645 -7q-12 68 -7 162q666 16 809 15q12 -47 22.5 -350.5t6.5 -329.5q-18 -2 -661 -21v-280q113 2 342 7t342 9v-174h-861z" />
<glyph unicode="3" horiz-adv-x="835" d="M61 1104v164q580 -8 713 -17q0 -547 -10 -1126q-354 -4 -698 6v150l540 8q0 229 -4 342h-436q-16 80 -14 157l452 17q14 209 12 287q-285 14 -555 12z" />
<glyph unicode="4" horiz-adv-x="942" d="M61 408q-3 446 13 858h159v-688l461 -9q12 184 13 310q0 94 8 98q33 6 166 -8q-8 -690 -17 -858q-66 0 -157 6v291h-646z" />
<glyph unicode="5" horiz-adv-x="962" d="M61 1125.5q-2 15.5 0 43.5q0 55 7 80q4 10 60 12.5t286 -1.5q295 -4 393 -11q45 -4 49 -15t-4 -89l-6 -64l-518 17q-16 -242 -15 -297h564q12 -242 24 -686h-809v161h635q2 147 -12 353q-287 -4 -563 6v459h-13q-29 0 -40 1t-23.5 8t-14.5 22.5z" />
<glyph unicode="6" horiz-adv-x="890" d="M61 115q8 987 17 1136q2 15 258 17q115 0 259 1t210 1v-162q-516 -8 -557 -16q-8 -25 -17 -312h598v-665h-768zM233 287h435v331h-435v-331z" />
<glyph unicode="7" horiz-adv-x="991" d="M61 1094v159q432 12 748 11q-8 -350 -16 -410q-6 -10 28 -12h60h34l9 -47q6 -35 6 -57.5t-1 -36t-12.5 -18.5t-18.5 -7t-31.5 -3t-39.5 -3h-36q-12 -209 -25 -566q-27 3 -156 15q-6 57 1 274t3 269l-98 -5q-72 -2 -87 0t-15 19q-8 106 -13 143q133 6 222 15q0 39 8 260 h-570z" />
<glyph unicode="8" horiz-adv-x="991" d="M61 811h103v455h602q16 -281 14 -435q49 4 121 -4q14 0 25 -352q8 -350 4 -354q-35 -2 -202 -5t-375 -7.5t-267 -6.5q-8 106 -25 709zM229 655q0 -23 3.5 -172t0.5 -219q471 8 535 17q4 47 -12 389l-219 -6q-220 -9 -308 -9zM326 834q76 -12 292 -13q2 98 -6 281h-286 v-268z" />
<glyph unicode="9" horiz-adv-x="870" d="M61 129q-2 55 7 152l579 8v301q-25 0 -143.5 4t-237.5 7t-182 3v682q131 -2 373.5 3t351.5 5v-1179q-588 0 -748 14zM244 1124q-2 -125 6 -358l397 -8v366h-403z" />
<glyph unicode=":" horiz-adv-x="337" d="M61 721v180q12 2 81 12.5t112 8.5q0 -147 12 -201h-205zM72 113v204h35.5h48t49 -1t37 -4t14.5 -9q4 -12 20 -178q-149 0 -204 -12z" />
<glyph unicode=";" horiz-adv-x="456" d="M61 -82q0 8 56.5 172t81.5 229q8 14 21 15.5t39 -5.5t48 -7q68 -9 68 -17q0 -12 -63.5 -196.5t-71.5 -192.5q-10 -12 -94.5 -12t-84.5 14zM207 721q0 10 8 192q121 -18 180 -24v-168h-63t-78 -1t-47 1z" />
<glyph unicode="=" horiz-adv-x="929" d="M61 451v159q377 2 807 -14v-158q-49 0 -260 -1t-357.5 2.5t-189.5 11.5zM82 752v159h766v-159h-766z" />
<glyph unicode="?" horiz-adv-x="823" d="M61 1110v170q41 0 311.5 8t389.5 6v-620q-31 -2 -182.5 -12.5t-231.5 -14.5v-229h-170v391q88 10 414 25v284zM158 123q0 184 6 199q20 8 190 0q16 -162 11 -185q-8 -4 -48.5 -7t-91.5 -4t-67 -3z" />
<glyph unicode="@" horiz-adv-x="1515" d="M61 1276q2 2 696.5 1t696.5 -5q0 -190 -8 -1084q-63 -8 -250.5 -12t-442.5 -7t-333 -5v799h698q-10 -473 -26 -617h182q14 555 12 756q-500 14 -1057 10q4 -150 21 -1130l1196 12q14 -133 4 -164q-178 -12 -1362 -20q-8 154 -18.5 766t-8.5 700zM580 338h342 q8 29 12 110.5t6 192.5t4 150h-364v-453z" />
<glyph unicode="A" horiz-adv-x="991" d="M63 1202v84h867v-1165h-166l-8 348h-471v-344h-162v987q-8 2 -18.5 3t-15.5 1t-10 3t-7 7t-4 14.5t-3.5 25t-1.5 36.5zM285 629h483v485h-483v-485z" />
<glyph unicode="B" horiz-adv-x="905" d="M60 1200q1 47 1 53q100 11 635 11v-484h131v-34q0 -92 8 -286q10 -236 9 -323q-164 -12 -778 -12q0 12 -2 50q-1 19 0 35v30q2 28 6 34q12 8 18 418q2 147 3 225q0 39 0.5 69.5t-0.5 52.5q-1 44 -4 54.5t-9 10.5q-10 -6 -14 22q-4 22 -4 58v16zM240 780h305v324h-291 q0 -13 1 -27q-1 -111 -15 -297zM244 281q389 8 428 10q6 7 7 71q0 32 0.5 69t-0.5 79q-1 84 -1 108h-434v-337z" />
<glyph unicode="C" horiz-adv-x="892" d="M61 1255h60q250 0 680 -14v-147h-576v-799l125 6q382 19 456 19q16 0 17 -1q8 -8 8 -151q-647 -32 -738 -32q-15 0 -15 1q-9 129 -17 1118z" />
<glyph unicode="D" horiz-adv-x="933" d="M61 135v162h68q8 385 27 797h-74v159q141 10 745 11q12 -133 26.5 -597t18.5 -532h-811zM291 297h409q-20 670 -28 801q-240 0 -355 -6q-4 -123 -12 -395.5t-14 -399.5z" />
<glyph unicode="E" horiz-adv-x="819" d="M61 1104v160h697v-160h-475v-324h344v-25q0 -53 -6 -134h-338q1 -24 1 -56q0 -49 -2 -118q-3 -115 -3 -144l454 -12v-148l-610 -8v969h-62z" />
<glyph unicode="F" horiz-adv-x="858" d="M63 1094v153q476 17 671 17h52q10 -62 10 -117q0 -20 -1 -39q-68 0 -260.5 -7t-241.5 -7v-314h354v-157l-348 -9l8 -479h-166v68q0 264 -12 891h-66z" />
<glyph unicode="G" horiz-adv-x="929" d="M61 135v1133q137 -12 807 -13v-163h-132q-264 0 -519 6q5 -376 5 -644q0 -90 -1 -167h467q-4 53 -4 166q-63 4 -199 4v149q233 12 335 12h26q4 -72 4 -111t-4 -46q-1 -3 -1 -32q0 -70 7 -294h-791z" />
<glyph unicode="H" horiz-adv-x="899" d="M61 1266h162v-162t2 -211t11 -123q64 -1 127 -1q157 0 309 7q0 443 4 492q6 6 52 6q37 0 101 -4l9 -1145h-162v485h-443v-465h-159q-13 780 -13 1081v40z" />
<glyph unicode="I" horiz-adv-x="288" d="M61 135q0 1053 7 1133q3 8 79 8q51 0 62.5 -3t15.5 -20q1 -42 1 -180q0 -276 -5 -938h-160z" />
<glyph unicode="J" horiz-adv-x="796" d="M63 168v5q0 23 9 146l432 -16q1 121 1 241q0 301 -7 595h-152v25q0 52 -6 132h395v-151h-84q10 -496 13 -993q-41 2 -191.5 4t-267.5 5t-142 7z" />
<glyph unicode="K" horiz-adv-x="942" d="M61 135v1161h162v-485h352q6 37 27 247t25 238q135 -6 153 -20l-14 -193q0 -20 -4 -65l-17 -201q6 -6 49.5 -6t43.5 -16q0 2 12 -156q12 -159 24 -317q9 -118 8 -147q0 -11 -1 -11q-8 -4 -37 -7t-67 -5t-50 -5q-8 51 -22.5 255t-20.5 247h-461v-502q-75 -12 -143 -12h-19 z" />
<glyph unicode="L" horiz-adv-x="839" d="M61 145v34v46.5t1 45t5.5 33.5t12.5 9q12 2 16 39t8 195q8 225 9 739h174l-17 -969h508v-172h-717z" />
<glyph unicode="M" horiz-adv-x="1433" d="M61 1296h699q0 -156 8 -166q-4 -2 58.5 4.5t152.5 16.5t181 19.5t153.5 16.5t58.5 5l-47 -1049q-8 -8 -162 -8q0 4 9.5 218t19.5 432.5t10 224.5h-2q-16 0 -194 -20q-194 -22 -203 -23q0 1 -1 1q-7 0 -10 -165q-1 -87 -0.5 -175.5t1 -179t1 -157.5t-1.5 -111h-30.5h-41 h-42t-31.5 2t-12 6q-2 43 -16.5 469t-20.5 478q-50 1 -100 1q-136 0 -267 -8q0 -164 3.5 -491.5t5.5 -491.5h-166v77q0 317 -13 1074z" />
<glyph unicode="N" horiz-adv-x="983" d="M61 1335q59 12 136 12q16 0 34 -1q6 -41 15 -123q115 4 339 12t324 12q0 -797 13 -1120q-166 -8 -170 -8q-4 39 -7.5 227.5t-5.5 425t-4 303.5q-16 -8 -241.5 -16t-243.5 -12q-14 -1 -16 -65v-44q0 -96 4 -350l6 -453h-170q-13 282 -13 1200z" />
<glyph unicode="O" horiz-adv-x="942" d="M61 1245q73 1 389 17q255 13 369 13q28 0 47 -1v-117q0 -500 15 -1032h-799q-2 102 -5 365.5t-6.5 468t-9.5 286.5zM238 1085q-1 -9 -1 -78q0 -172 7 -720h461v817h-117q-338 -6 -350 -19z" />
<glyph unicode="P" horiz-adv-x="925" d="M61 1104v162h785q0 -98 9 -360q7 -215 7 -320v-41q-55 -2 -177 -7.5t-214 -8.5q-55 -2 -107 -2q-34 0 -67 1l-16 -393h-158q4 498 18 969h-80zM299 686h36q162 0 361 16q0 289 -12 402h-379q-9 -202 -9 -316q0 -65 3 -102z" />
<glyph unicode="Q" horiz-adv-x="931" d="M61 1262q739 32 809 32v-1165l-41 4q-35 2 -38 -8t20 -49q18 -31 10 -42t-73 -48l-58 -33q-57 100 -96 178h-508q-8 68 -12 275.5t-7.5 489.5t-5.5 366zM227 1104q10 -631 21 -807h250q-27 47 -31 68q0 6 34 26.5t68.5 36.5t36.5 12q10 -27 46 -82t44 -59h1q5 0 8 115 q2 109 2 424q-1 118 -1 188t1 92q-22 1 -56 1q-76 0 -211 -6q-194 -9 -213 -9z" />
<glyph unicode="R" horiz-adv-x="913" d="M60 1229q1 51 1 57h98q250 0 548 8v-493h131q0 -502 14 -676h-166q0 401 -12 518l-422 -8l-8 -520h-17q-70 0 -147 14l8 496q2 180 3 273q0 46 0.5 83t-0.5 65q-1 54 -4 66t-9 12q-10 -6 -14 24q-4 25 -4 63v18zM254 801h305q-14 117 -14 334q-33 0 -137.5 -6.5 t-153.5 -6.5v-321z" />
<glyph unicode="S" horiz-adv-x="1030" d="M61 125v131h760q-2 39 -6 120t-8 145.5t-10 96.5h-50q-223 0 -614 15q-14 287 -18 643h764v-131h-629q2 -31 4 -121t5 -166t5 -92q4 -4 336 -12q330 -8 330 -21q2 -59 17.5 -315t21.5 -293h-908z" />
<glyph unicode="T" horiz-adv-x="1019" d="M61 1124v172q711 0 897 -14v-158h-393v-1009h-170v1009h-334z" />
<glyph unicode="U" horiz-adv-x="1009" d="M61 981q2 209 11 274q51 -4 159 -4v-985h545v1000h172v-1172q-127 -1 -254 -1q-317 0 -628 7q0 56 -4 364q-2 196 -2 352q0 89 1 165z" />
<glyph unicode="V" horiz-adv-x="1056" d="M61 1305h162q13 -503 13 -697v-26l292 -238q229 215 303 291q-20 424 -20 580q0 44 2 67q6 2 37 5t71 6t52 5q0 -11 -1 -25q0 -166 23 -698q-25 -25 -140.5 -139t-201.5 -199t-108 -102q-51 33 -471 367v130q0 345 -13 673z" />
<glyph unicode="W" horiz-adv-x="1437" d="M60 500v111q0 242 4 412q4 208 14 273h24q51 0 129 -6v-995l369 -8v14q0 75 14 454q16 425 17 462q53 -4 163 -5v-751q61 -13 229 -29q134 -13 167 -13q8 0 10 1q2 6 -29 874q110 9 154 9h8q8 -143 19.5 -410.5t17.5 -464.5l6 -197q-143 6 -614 68v-174h-142 q-283 0 -559 6q0 53 -1 369z" />
<glyph unicode="X" horiz-adv-x="899" d="M61 1264q134 10 154 10q8 -39 11 -163t16 -161q25 -27 190 -121l189 115q1 26 1 53q0 33 -2 67q-1 22 0 43q0 39 2 79q4 62 13 90h147v-414q-14 -10 -192 -123l231 -139q0 -61 7.5 -243.5t7.5 -225.5q-49 -4 -152 -4q-12 147 -12 240q-2 106 -16.5 130.5t-104.5 77.5 q-18 10 -36.5 20.5t-27 16.5t-20.5 11.5t-15 9.5t-12.5 4h-12.5t-15.5 -6t-18.5 -10.5t-25.5 -15.5t-33.5 -19l-90 -54q-6 -283 -21 -415q-4 -1 -13 -1q-35 0 -144 13q6 88 13 265t9 231q4 2 55.5 32.5t84 53t36.5 30.5q-12 14 -188 115v28q0 66 -6 196q-8 161 -9 184z" />
<glyph unicode="Y" horiz-adv-x="952" d="M61 1274q48 11 119 11q21 0 43 -1q6 -96 10.5 -289.5t8.5 -257.5l8 -51l479 8l-8 570q84 5 126 5q32 0 40 -3q4 -68 4 -1119q-63 -8 -201 -10q-93 -1 -212 -1h-126q-198 1 -262 1q-4 49 -4 156q29 0 287 8q206 6 312 6h46v221h-643q-12 172 -27 746z" />
<glyph unicode="Z" horiz-adv-x="1009" d="M61 1112q0 139 5 154q14 2 147 2q99 0 265 -1q386 -3 470 -14q-45 -72 -159.5 -257t-227 -365t-207.5 -326l594 -8v-162q-815 0 -876 8q74 131 592 955q-57 2 -194.5 6t-244 6t-164.5 2z" />
<glyph unicode="\" horiz-adv-x="778" d="M61 1217q12 6 47 21t65 29.5t36 16.5q16 -29 34.5 -68.5t49.5 -107.5t61 -131q359 -781 363 -791q0 -8 -61.5 -39.5t-75.5 -31.5q-10 0 -56 104q-39 84 -228.5 490.5t-234.5 507.5z" />
<glyph unicode="^" horiz-adv-x="737" d="M61 655q-2 2 236 533q49 108 55 108q4 0 164 -307t160 -317q0 -6 -62.5 -39t-74.5 -33q-29 39 -96.5 169t-82.5 155q-23 -47 -76 -170t-73 -164q-137 55 -150 65z" />
<glyph unicode="a" horiz-adv-x="927" d="M61 92q11 705 19 832q275 -13 572 -13h112v-645h102v-26q0 -55 -6 -140zM229 266h375v98q0 195 -6 381l-354 9q-15 -146 -15 -400v-88z" />
<glyph unicode="b" horiz-adv-x="860" d="M61 106v187q0 495 13 962h159v-299q33 0 253 -8q176 -6 271 -6h42v-815q-45 -6 -183.5 -10t-310.5 -6t-244 -5zM223 276h408l8 504h-31q-138 0 -372 15q-13 -357 -13 -500v-19z" />
<glyph unicode="c" horiz-adv-x="702" d="M63 649v252h174.5t224.5 -2t140 -10v-137h-395v-23q0 -106 14 -465l420 17v-144q-104 -12 -563 -24q-8 53 -11.5 187t-3.5 349z" />
<glyph unicode="d" horiz-adv-x="843" d="M66 125v809q192 -13 546 -25q15 119 15 296v61h155q1 -80 0 -197q0 -176 -1 -435q-3 -433 -7 -505q-61 -4 -708 -4zM223 287h393v461q-255 12 -365 12h-28v-473z" />
<glyph unicode="e" horiz-adv-x="849" d="M61 973q676 0 721 -10q2 -31 2 -111q0 -60 -1 -146q-3 -202 -9 -298h-541q0 -100 13 -132l542 13v-164q-47 1 -115 1q-103 0 -251 -2q-248 -3 -336 -3q-2 65 -14 403q-11 291 -11 414v35zM219 811q2 -18 4 -79.5t5 -110t8 -58.5h17q67 0 374 8v240h-408z" />
<glyph unicode="f" horiz-adv-x="616" d="M61 883v131h109l16 260q86 10 369 10v-129q-174 0 -242 -14v-131q45 6 140 14q6 -95 6 -124v-11q-10 -6 -142 -6q-14 -121 -14 -768h-131v768h-111z" />
<glyph unicode="g" horiz-adv-x="858" d="M61 104v787h34q97 0 335 8q285 10 356 10q0 -90 5.5 -373.5t5.5 -413.5t-4 -304q-59 0 -344 13t-377 15q0 141 8 152l366 -14q123 -6 201 -11v131h-586zM213 256q397 0 426 8q1 18 1 79q0 120 -5 409h-91q-229 0 -331 -13v-483z" />
<glyph unicode="h" horiz-adv-x="880" d="M61 1276h26q55 0 140 -6l9 -246h51q232 0 532 -16v-71q0 -297 -14 -812h-172q10 100 14 397q2 119 2 194q0 113 -4 128q-16 4 -97 7t-184.5 5t-132.5 4l17 -735q-145 0 -164 -2q-1 -1 -2 -1q-3 0 -4 5q-4 23 -10 588v4z" />
<glyph unicode="i" horiz-adv-x="315" d="M61 1073v189q115 17 167 17q10 0 18 -1q8 -12 8 -205h-193zM72 115v848h24q57 0 146 -7v-841h-170z" />
<glyph unicode="j" horiz-adv-x="598" d="M61 -68h304q-8 133 -21 1020q47 8 170 9q6 -207 13.5 -642.5t9.5 -556.5h-476v170zM334 1073v189q23 2 94.5 12t79.5 10q4 0 7 -4t6 -17.5t4 -36t3 -59.5l4 -94h-198z" />
<glyph unicode="k" horiz-adv-x="843" d="M61 1286h167q8 -561 18 -635q8 -2 46 0t86 6.5t60 4.5q90 258 131 350h1q7 0 79 -25q51 -18 62.5 -26.5t7.5 -22.5q-18 -55 -101 -270q-8 -18 17 -19q16 0 24.5 -15.5t22.5 -82.5q4 -20 28.5 -118.5t45 -185.5t26.5 -116q-6 -5 -78 -21q-58 -12 -72 -13q-4 0 -5 1 q-25 43 -99 383l-282 -8v-356q-111 -13 -159 -13h-7q-4 225 -10.5 655.5t-8.5 526.5z" />
<glyph unicode="l" horiz-adv-x="450" d="M61 1276h162v-1000q113 0 166 -4v-161h-319z" />
<glyph unicode="m" horiz-adv-x="1312" d="M61 94v858h656v-82l534 17v-9q1 -74 -27 -402q-30 -352 -36 -378h-6q-24 0 -152 8q4 39 24.5 294t26.5 311h-340q-10 -66 -13 -276t-7 -257q-4 -16 -17.5 -19t-68.5 -3h-80v635h-332v-697h-162z" />
<glyph unicode="n" horiz-adv-x="829" d="M61 94v828h76q27 0 38 -1t22.5 -1t12.5 -5.5t3 -8.5t1 -16t-1 -22q57 8 142 11.5t232.5 3.5h178.5v-789h-148q-14 465 -14 633q-14 0 -177 -5t-208 -7v-126q0 -252 6 -495h-164z" />
<glyph unicode="o" horiz-adv-x="862" d="M61 94q4 57 17.5 392t21.5 423q-4 6 133 11q111 2 392 2h176q-6 -147 -13.5 -444.5t-9.5 -383.5h-717zM231 252l394 -8q2 57 6 167.5t6 200.5t2 148h-391q-17 -346 -18 -492q1 -8 1 -16z" />
<glyph unicode="p" horiz-adv-x="833" d="M61 911q27 0 291 -10t402 -12q16 -509 16 -732v-46l-557 8v-326h-70q-47 0 -59 3.5t-16 19.5q-6 111 -7 1095zM213 266q18 0 405 -12q0 23 -2 162t-6 236q-4 90 -13 90l-1 -1q-33 10 -383 11v-486z" />
<glyph unicode="q" horiz-adv-x="843" d="M61 131v772q417 17 648 17h65q8 -876 8 -1060v-46q-6 -2 -34.5 -5.5t-64.5 -5.5t-48 -4v326h-116q-232 0 -458 6zM211 276q389 0 418 9v38q0 105 -6 449q-190 -10 -412 -10v-486z" />
<glyph unicode="r" horiz-adv-x="667" d="M61 909q50 12 95 12q14 0 28 -1q23 -2 30 -8.5t9 -22.5q2 -18 8.5 -21.5t26.5 0.5q25 6 158 33t151 29q16 -4 29 -72q12 -72 10 -74q-20 -6 -180 -38.5t-197 -40.5v-48q0 -153 9 -536q-49 -4 -152 -4q-16 700 -25 792z" />
<glyph unicode="s" horiz-adv-x="749" d="M63 440v15q0 71 9 467h592v-152h-443v-184l467 12q-14 -363 -14 -472v-24q-580 18 -604 23q-3 7 -3 35q0 37 5 112h48q78 0 198 -4q160 -6 204 -6v176q-436 0 -459 2z" />
<glyph unicode="t" horiz-adv-x="516" d="M61 932v170q49 4 76 4v34q0 67 6 126h170v-152h119q13 -59 13 -134q0 -19 -1 -38q-125 0 -133 -6q-2 -20 -20 -649h164v-172h-336l16 817h-74z" />
<glyph unicode="u" horiz-adv-x="798" d="M61 115v29q0 218 13 767h151q0 -106 -3 -319t-5 -320l356 -8q8 59 10.5 163.5t2.5 269.5v210h143l8 -792h-676z" />
<glyph unicode="v" horiz-adv-x="808" d="M61 352v539h152v-469l188 -131l195 162v448h139q8 -41 10.5 -126t2.5 -217v-167q-287 -246 -347 -280q-39 20 -183 126.5t-157 114.5z" />
<glyph unicode="w" horiz-adv-x="1292" d="M61 104v850q49 -4 156 -4l8 -684h307q12 141 13 623q81 5 120 5q30 0 37 -3q2 -25 6.5 -130.5t7.5 -242.5t5 -172h340q-8 29 -26.5 298t-24.5 296q100 12 137 12q14 0 20 -2q6 -31 33 -386t31 -378h-535v-82h-635z" />
<glyph unicode="x" horiz-adv-x="849" d="M60 204q1 34 8 101l6 146q74 31 141 67q-16 6 -49 21.5t-49 23.5l-33 336q0 2 36 7q36 4 74 8q20 2 30 2q8 0 9 -1q6 0 15 -75q12 -147 24 -166q8 -12 58 -35l65 -31l201 103v202q51 -4 158 -4q-1 -44 -1 -87q0 -107 7 -208q-27 -12 -93.5 -47t-78.5 -43q4 -4 92 -41 q8 -4 20 -8q55 -25 66 -45q10 -25 14 -147l2 -43l6 -144q-89 -5 -126 -5q-19 0 -25 1q-6 14 -14 246l-222 96q-119 -57 -178 -88v-36q0 -78 -6 -199q-19 4 -36 4q-17 1 -29 -3q-28 -8 -45 -2.5t-28 7.5q-11 1 -15 27q-4 21 -4 48v12z" />
<glyph unicode="y" horiz-adv-x="864" d="M61 922h148q2 -51 5 -166t6 -207t3 -154q0 -131 13 -133q66 -10 236 -10q73 0 165 2v657h149q0 -147 10 -549q7 -331 7 -486v-58h-48q-251 0 -685 18q4 45 4 144l585 -9q-14 117 -18 123q6 2 -82 6t-226 9.5t-249 5.5q-19 311 -23 807z" />
<glyph unicode="z" horiz-adv-x="915" d="M61 119q55 76 484 626q-57 1 -242 9q-150 7 -216 6h-26v153q57 -2 253 -3t350.5 -3t189.5 -8h1q0 -8 -132 -180q-338 -442 -338 -445q29 -8 442 -8v-151q-719 0 -766 4z" />
<glyph unicode="{" horiz-adv-x="598" d="M61 649v162h91l-13 625q167 8 398 8v-156q-131 -14 -228 -12q0 -104 17 -1172h200v-161h-360q-16 582 -14 706h-91z" />
<glyph unicode="}" horiz-adv-x="606" d="M61 1309v157h400v-614h84v-168h-84q-14 -739 -15 -741h-374v159l209 17q14 696 12 1177q-177 1 -232 13z" />
<glyph unicode="&#xad;" d="M61 408v161h525v-161h-525z" />
<glyph unicode="&#xc4;" horiz-adv-x="991" d="M63 1178q-4 70 0 84q-12 10 153 12t429 0l264 -4l9 -1155h-162v344h-473v-340q-111 0 -162 -4v987q-8 2 -26.5 3t-20.5 5t-6.5 19.5t-4.5 48.5zM121 1317v190q63 2 176 -6q4 -29 11 -85t9 -85q-53 -14 -196 -14zM283 618h473v486h-473v-486zM735 1375q0 40 1 78t-1 65h88 q72 0 82 -11.5t19 -101.5l6 -68q-186 -8 -191 -8q-4 6 -4 46z" />
<glyph unicode="&#xd6;" horiz-adv-x="960" d="M61 1266h830v-1151h-805q-12 733 -25 1151zM61 1341q0 173 2 191q14 4 80 4t97 -4q25 -111 24 -180q-6 -2 -203 -11zM236 1092q2 -57 4 -255t5 -354.5t7 -193.5q2 -13 233 -13q233 0 238 9q2 96 -6 819q-154 2 -481 -12zM698 1343v195h183l4 -47q16 -129 10 -133 q-2 -2 -16 -2q-171 -13 -181 -13z" />
<glyph unicode="&#xdc;" horiz-adv-x="1032" d="M61 125v1151q59 2 162 -6v-973q86 0 267.5 -4t273.5 -2q2 106 6 324.5t6 391.5t2 279h162v-1161h-879zM61 1356v192h189q12 -119 18 -180q-113 -14 -207 -12zM758 1366v94q4 20 0 36.5t0 28t1 18.5t3 12.5t6 7.5t11.5 3t18.5 1t26.5 1t35.5 1h88q4 -72 23 -191 q-203 -12 -213 -12z" />
<glyph unicode="&#xdf;" horiz-adv-x="952" d="M61 1255q426 -5 625 9q6 -78 11 -245t10 -226l6 -33q117 8 178 14q0 -37 -2 -205t-6 -278.5t-13 -153.5q-45 0 -181 -2t-223 -4t-140 0q-8 10 -9 156h400q14 113 14 321q-49 -6 -225 -16t-197 -10q0 6 -7 71.5t-9 83.5l256 17q2 43 -5 169t-7 181q-274 0 -299 -10 q-10 18 -11.5 -231t1.5 -624.5t3 -390.5q-51 -4 -157 -4q2 352 -13 1411z" />
<glyph unicode="&#xe4;" horiz-adv-x="935" d="M61 115q0 109 7.5 428t7.5 393q49 -2 215 -4t298 -5t161 -7q4 -27 7 -156t5 -291t4 -207h108v-151h-813zM66 1014v170h79q70 0 80.5 -10.5t18.5 -86.5l6 -61q-104 -14 -184 -12zM217 266h393v510h-393v-510zM571 1018v178q53 -4 166 -4q16 -141 13 -164q-6 -2 -42 -4 t-79.5 -3t-57.5 -3z" />
<glyph unicode="&#xf6;" horiz-adv-x="851" d="M61 125q6 57 19.5 398t23.5 419h687q2 -211 -13 -817h-717zM104 1214h86q72 0 82.5 -10t18.5 -96l6 -64q-161 -8 -184 -4q-8 10 -9 174zM223 276h406q0 392 14 515h-393q-6 -100 -27 -515zM600 1042v183h168q4 -20 10 -81t8 -71q16 -18 -112 -29h-27l-20 -2h-27z" />
<glyph unicode="&#xfc;" horiz-adv-x="804" d="M61 125q-3 416 13 797h151l-12 -650l369 9v641h155v-797h-676zM61 989v185h86q74 0 83.5 -10.5t17.5 -96.5l6 -63q-31 2 -107 -6.5t-86 -8.5zM555 1004q0 158 6 172q6 8 85 0.5t83 -15.5q6 -10 11 -75.5t1 -73.5q-10 -8 -186 -8z" />
<glyph unicode="&#x2000;" horiz-adv-x="784" />
<glyph unicode="&#x2001;" horiz-adv-x="1569" />
<glyph unicode="&#x2002;" horiz-adv-x="784" />
<glyph unicode="&#x2003;" horiz-adv-x="1569" />
<glyph unicode="&#x2004;" horiz-adv-x="523" />
<glyph unicode="&#x2005;" horiz-adv-x="392" />
<glyph unicode="&#x2006;" horiz-adv-x="261" />
<glyph unicode="&#x2007;" horiz-adv-x="261" />
<glyph unicode="&#x2008;" horiz-adv-x="196" />
<glyph unicode="&#x2009;" horiz-adv-x="313" />
<glyph unicode="&#x200a;" horiz-adv-x="87" />
<glyph unicode="&#x2010;" d="M61 408v161h525v-161h-525z" />
<glyph unicode="&#x2011;" d="M61 408v161h525v-161h-525z" />
<glyph unicode="&#x2012;" d="M61 408v161h525v-161h-525z" />
<glyph unicode="&#x2013;" horiz-adv-x="1146" d="M61 408v161h1024v-161h-1024z" />
<glyph unicode="&#x2014;" horiz-adv-x="2170" d="M61 408v161h2048v-161h-2048z" />
<glyph unicode="&#x202f;" horiz-adv-x="313" />
<glyph unicode="&#x205f;" horiz-adv-x="392" />
<glyph unicode="&#x20ac;" horiz-adv-x="1060" d="M61 741v47q4 14 3 55.5t10.5 55.5t46.5 8h43l8 379q39 -2 366.5 -13t446.5 -22q8 -20 -8 -159q-219 12 -643 24v-211q61 -10 245.5 -14t196.5 -4l33 -8q2 -55 -6 -154l-469 8v-53h454v-172l-454 16v-229l665 12v-160q-182 -4 -827 -20v391h-80v162h10q66 0 68 25v8 q2 20 -4 24t-47 4h-58z" />
<glyph unicode="&#x25fc;" horiz-adv-x="911" d="M0 0v911h911v-911h-911z" />
</font>
</defs>
</svg>
